<svg width="150" height="19" viewBox="0 0 150 19" fill="none" xmlns="http://www.w3.org/2000/svg">
<path d="M108.978 0.0321465C106.987 0.199057 105.705 0.667219 104.866 1.52213C104.524 1.87223 104.406 2.00657 104.154 2.33225C104.036 2.48695 103.917 2.63757 103.893 2.65793C103.844 2.70271 103.84 2.71085 103.592 3.12609C103.413 3.42734 103.274 3.74081 103.242 3.91993C103.234 3.98506 103.197 4.11534 103.168 4.2049C103.132 4.31888 103.12 4.66899 103.12 5.40584C103.124 6.38694 103.128 6.46836 103.229 6.87953C103.348 7.35176 103.372 7.4169 103.555 7.80771C103.799 8.31658 104.329 8.96387 104.793 9.31804C104.923 9.41575 105.037 9.50531 105.049 9.51752C105.131 9.60708 106.433 10.4538 106.486 10.4538C106.494 10.4538 106.661 10.5434 106.853 10.6533C107.044 10.7632 107.691 11.1052 108.29 11.4146C110.598 12.5911 111.034 12.8801 111.392 13.4582C111.559 13.7351 111.734 14.1177 111.852 14.4882C111.954 14.7976 111.901 15.4042 111.742 15.7746C111.709 15.8438 111.685 15.9293 111.685 15.9659C111.685 16.1084 111.367 16.6295 111.131 16.8738C110.683 17.3297 110.15 17.5048 109.181 17.5088C108.143 17.5129 107.288 17.2687 106.372 16.7191C106.218 16.6254 106.079 16.5359 106.067 16.5196C106.055 16.5074 105.945 16.4178 105.823 16.3283C105.375 16.0026 104.703 15.2454 104.496 14.8424C104.459 14.7691 104.406 14.6795 104.382 14.647C104.292 14.5411 104.036 13.906 103.934 13.5478C103.795 13.0674 103.742 12.929 103.681 12.8517C103.649 12.8191 103.624 12.7662 103.624 12.7417C103.624 12.6603 103.396 12.4446 103.331 12.469C103.189 12.526 103.14 12.8761 103.103 14.1584C103.059 15.6769 103.067 18.1358 103.12 18.1846C103.14 18.205 103.661 18.2864 104.276 18.3678C104.89 18.4492 105.578 18.5429 105.802 18.5754C106.612 18.6894 107.37 18.7342 108.387 18.7383C109.747 18.7383 110.618 18.6365 111.534 18.3719C112.654 18.0462 113.757 17.3623 114.351 16.6254C114.421 16.544 114.518 16.4219 114.575 16.3568C114.714 16.2021 115.105 15.5385 115.223 15.2576C115.276 15.1355 115.337 14.9971 115.353 14.9523C115.508 14.6022 115.687 13.5356 115.658 13.1407C115.601 12.3713 115.487 11.9031 115.223 11.325C115.182 11.2314 115.145 11.1378 115.145 11.1174C115.145 11.093 115.117 11.0523 115.084 11.0238C115.052 10.9953 115.023 10.9383 115.023 10.8935C115.023 10.8528 114.995 10.808 114.962 10.7958C114.929 10.7795 114.901 10.747 114.901 10.7225C114.901 10.694 114.868 10.637 114.828 10.5923C114.783 10.5475 114.742 10.4905 114.734 10.4661C114.693 10.3521 114.038 9.64779 113.716 9.37097C113.545 9.22441 112.959 8.82545 112.914 8.82545C112.89 8.82545 112.865 8.81324 112.857 8.79289C112.853 8.7766 112.544 8.57713 112.173 8.35322C111.371 7.86471 110.993 7.64894 110.036 7.136C109.837 7.02608 109.58 6.88767 109.474 6.82253C109.369 6.76147 109.271 6.70855 109.263 6.70855C109.255 6.70855 109.1 6.61491 108.917 6.505C108.733 6.39101 108.575 6.30145 108.567 6.30145C108.554 6.30145 108.396 6.19968 108.212 6.0694C107.138 5.32849 106.726 4.8359 106.58 4.11127C106.393 3.18715 106.649 2.41774 107.337 1.83966C108.245 1.07432 110.154 1.11503 111.428 1.92922C111.913 2.23862 112.564 2.93882 112.927 3.54133C113.187 3.96878 113.313 4.19676 113.313 4.23339C113.313 4.25375 113.338 4.32296 113.37 4.37995C113.399 4.44101 113.464 4.56721 113.513 4.65678C113.558 4.75041 113.598 4.8644 113.598 4.90918C113.598 4.95396 113.627 5.04352 113.659 5.10458C113.696 5.18193 113.72 5.3407 113.72 5.54832C113.72 5.90249 113.798 6.13454 113.961 6.2811C114.07 6.3788 114.152 6.33809 114.254 6.13454C114.311 6.0287 114.339 5.82108 114.372 5.26742C114.429 4.28632 114.429 0.614296 114.368 0.58173C114.327 0.553232 114.115 0.508451 113.11 0.300831C111.909 0.0565739 110.085 -0.0614853 108.978 0.0321465Z" fill="black"/>
<path d="M23.1416 0.276676C22.7264 0.292961 22.303 0.329599 22.1971 0.358097C21.6679 0.49651 21.8063 1.11123 22.417 1.3392C22.5513 1.38805 22.7101 1.48169 22.7752 1.54275C22.9136 1.68523 23.0439 1.94985 23.0846 2.16968C23.0968 2.25924 23.1294 2.36509 23.1497 2.4058C23.1701 2.44651 23.2027 2.64598 23.223 2.8536C23.2434 3.06122 23.28 3.41133 23.3085 3.63523C23.3818 4.2011 23.3818 14.8304 23.3126 15.3393C23.2841 15.5306 23.2434 15.8604 23.223 16.0721C23.2027 16.2838 23.1579 16.5321 23.1253 16.6216C23.0928 16.7112 23.0643 16.8171 23.0602 16.8537C23.0602 16.9595 22.9014 17.2445 22.7711 17.3748C22.706 17.4399 22.5472 17.5295 22.421 17.5783C22.0506 17.7167 21.8796 17.8959 21.8796 18.1483C21.8796 18.4536 22.4577 18.5146 25.3155 18.5146C27.8802 18.5146 28.5479 18.4577 28.6049 18.2378C28.6781 17.9691 28.4827 17.733 28.0593 17.562C27.8069 17.4562 27.6034 17.2689 27.5138 17.0491C27.4813 16.9717 27.4365 16.87 27.4161 16.8252C27.3388 16.642 27.2411 16.1046 27.2085 15.6853C27.1882 15.437 27.1556 15.0095 27.1352 14.7286C27.1108 14.4477 27.0945 13.2549 27.0905 12.0784V9.93303L27.18 9.90861C27.3266 9.87197 33.9826 9.88011 34.0478 9.92082C34.0925 9.94932 34.1007 10.4541 34.0844 13.0636C34.064 15.8441 34.0559 16.2023 33.9908 16.4588C33.8971 16.8415 33.7831 17.0572 33.5633 17.2811C33.3557 17.4928 32.9364 17.7819 32.8305 17.7819C32.7369 17.7819 32.5944 17.9447 32.57 18.0791C32.5374 18.2622 32.6799 18.3722 33.0381 18.4373C33.4656 18.5187 38.2938 18.5187 38.7131 18.4414C39.2342 18.3437 39.3685 18.2256 39.2423 17.9854C39.1731 17.8552 38.5584 17.2241 38.2531 16.9717L38.0821 16.8293V10.1936C38.0862 6.44421 38.1024 3.3869 38.1228 3.16707C38.249 1.85214 38.2938 1.73409 38.7457 1.42062C38.8434 1.35549 38.9736 1.28628 39.0347 1.26999C39.2301 1.22114 39.3075 1.07052 39.2952 0.773336C39.279 0.447659 39.2097 0.382523 38.8027 0.317387C38.4485 0.264463 34.8823 0.231895 33.8686 0.276676C32.7288 0.325529 32.5822 0.37845 32.5781 0.761124C32.5781 1.00538 32.6962 1.20079 32.8631 1.23743C33.3313 1.33513 33.6936 1.58753 33.8605 1.92542C33.8931 1.99056 33.95 2.21039 33.9908 2.41394C34.0559 2.73962 34.064 3.11822 34.0844 5.69515L34.1047 8.60996L34.007 8.63439C33.8808 8.67103 27.4446 8.67103 27.2452 8.63846L27.0905 8.60996L27.0945 6.59076C27.0945 5.47938 27.1108 4.35987 27.1352 4.10339C27.1556 3.84692 27.1882 3.42354 27.2085 3.16707C27.2981 2.08419 27.579 1.51425 28.1123 1.3392C28.4542 1.22928 28.6537 0.932104 28.6049 0.606426C28.5804 0.439516 28.4542 0.37031 28.0634 0.317387C27.697 0.264463 24.1553 0.235968 23.1416 0.276676Z" fill="black"/>
<path d="M81.5394 0.284819C81.4294 0.341812 81.0305 0.761124 81.0305 0.818117C81.0305 0.842543 81.002 0.895466 80.9613 0.936174C80.9246 0.976885 80.8717 1.05016 80.8432 1.10308C80.7781 1.22521 80.3466 2.10047 80.2774 2.2511C80.2489 2.31624 80.1878 2.45465 80.143 2.55642C80.0982 2.6582 80.0209 2.82918 79.972 2.94317C79.9232 3.05308 79.8662 3.17928 79.8458 3.21592C79.8255 3.25663 79.8092 3.30955 79.8092 3.33398C79.8092 3.35841 79.7807 3.4439 79.7441 3.52532C79.7074 3.61081 79.6464 3.74922 79.6056 3.83878C79.569 3.92834 79.5079 4.07083 79.4713 4.15632C79.4347 4.24181 79.4021 4.3273 79.4021 4.35172C79.4021 4.37615 79.3695 4.46978 79.3288 4.56341C79.2881 4.65705 79.223 4.81581 79.1823 4.91759C79.1416 5.01936 79.0846 5.15371 79.0561 5.22291C79.0031 5.34097 78.7711 5.93533 78.6408 6.28137C78.6083 6.37093 78.5472 6.51341 78.5024 6.59483C78.4617 6.67625 78.4251 6.77803 78.4251 6.81874C78.4251 6.85944 78.3966 6.92865 78.364 6.96936C78.3314 7.01414 78.3029 7.09149 78.3029 7.14034C78.3029 7.19326 78.2866 7.24212 78.2663 7.25433C78.25 7.26654 78.1889 7.39274 78.1401 7.53116C78.0872 7.67364 78.0139 7.8609 77.9773 7.95047C77.9365 8.04003 77.8633 8.21508 77.8144 8.33721C77.7656 8.45934 77.7045 8.61404 77.6719 8.68324C77.6434 8.74838 77.5864 8.88679 77.5498 8.98857C77.5132 9.09034 77.4562 9.22468 77.4236 9.29389C77.3951 9.35902 77.33 9.51779 77.2852 9.63992C77.2363 9.76205 77.1753 9.91675 77.1468 9.98595C77.1183 10.0511 77.0613 10.1895 77.0206 10.2913C76.9839 10.3931 76.9188 10.5559 76.8781 10.6577C76.8374 10.7594 76.7722 10.9223 76.7356 11.0241C76.6949 11.1258 76.642 11.2602 76.6094 11.3294C76.5809 11.3945 76.5076 11.5777 76.4466 11.7365C76.3896 11.8912 76.3244 12.0377 76.3041 12.0581C76.2837 12.0825 76.2674 12.1314 76.2674 12.168C76.2674 12.2087 76.243 12.2901 76.2105 12.3553C76.1005 12.5751 76.0069 12.799 75.9011 13.1003C75.7586 13.4951 75.4655 14.2279 75.3881 14.3704C75.3555 14.4274 75.3311 14.5007 75.3311 14.5332C75.327 14.5617 75.2945 14.6594 75.2497 14.749C75.2049 14.8386 75.1724 14.9403 75.1683 14.977C75.1683 15.0095 75.1398 15.0747 75.1072 15.1195C75.0746 15.1602 75.0462 15.2253 75.0462 15.2579C75.0462 15.2904 75.0177 15.3719 74.9851 15.437C74.9525 15.4981 74.924 15.5713 74.924 15.5998C74.924 15.6243 74.8833 15.726 74.8385 15.8278C74.7897 15.9296 74.7205 16.0721 74.6879 16.1453C74.6309 16.2675 74.6106 16.2797 74.4844 16.2634C74.3297 16.239 74.1546 16.068 73.9063 15.6853C73.8208 15.551 73.7312 15.4207 73.7149 15.4004C73.6987 15.3759 73.6579 15.3149 73.6295 15.2579C73.601 15.2009 73.548 15.1072 73.5073 15.0502C73.3893 14.863 73.1572 14.4844 73.0962 14.3704C73.0636 14.3093 73.0269 14.2523 73.0147 14.2401C72.9985 14.2279 72.9659 14.175 72.9374 14.118C72.9089 14.061 72.8519 13.9592 72.8071 13.8941C72.7664 13.8249 72.7053 13.7313 72.6768 13.6824C72.6158 13.5766 72.1965 12.8682 72.1354 12.7664C71.8057 12.2209 71.5614 11.7894 71.423 11.5126C71.3701 11.4108 71.3049 11.3009 71.2805 11.2683C71.252 11.2357 71.1624 11.0485 71.081 10.8571C70.963 10.5803 70.9304 10.4623 70.9426 10.3116L70.9548 10.1162L71.3294 9.84754C71.7324 9.5585 71.7772 9.51779 72.225 9.12291C72.628 8.76466 72.9496 8.42677 73.4992 7.78356C73.6417 7.61665 73.7841 7.40496 73.7841 7.36018C73.7841 7.33575 73.8004 7.31946 73.8167 7.31946C73.8737 7.31946 74.0162 6.91237 74.0935 6.52562C74.1872 6.08189 74.1953 4.9868 74.1139 4.63262C74.0854 4.51049 74.0528 4.33544 74.0406 4.24588C74.0284 4.15632 73.9918 4.03419 73.9633 3.97312C73.9307 3.91206 73.9063 3.83471 73.9063 3.79807C73.9063 3.75736 73.8819 3.68001 73.8493 3.62302C73.8208 3.56195 73.7272 3.37469 73.6417 3.20778C73.2142 2.36509 72.3756 1.60382 71.2194 0.993168C70.1528 0.435444 69.8027 0.394735 65.3776 0.313316C62.3813 0.260393 59.7963 0.276676 59.5642 0.354025C59.3607 0.419161 59.2752 0.553503 59.3118 0.757051C59.3525 1.00945 59.5805 1.23336 60.0243 1.44912L60.411 1.64045L60.4354 2.12897C60.468 2.7274 60.5046 6.33429 60.5372 12.4123L60.5657 16.9921L60.1382 17.2811C59.377 17.8022 59.1124 18.2093 59.4421 18.3477C59.7108 18.4577 60.1057 18.4821 62.1941 18.5024C65.345 18.535 66.0493 18.4699 66.0493 18.1523C66.0493 17.9854 65.8987 17.8226 65.6056 17.6638C65.2799 17.4928 65.1496 17.3788 64.9786 17.1183C64.7954 16.8415 64.714 16.585 64.6652 16.1128C64.6407 15.9011 64.6041 15.5958 64.5837 15.4411C64.5634 15.2823 64.5471 14.3297 64.5471 13.3242C64.543 11.6958 64.5552 11.4393 64.6245 11.0078C64.6692 10.7432 64.7262 10.4989 64.7507 10.4704C64.7751 10.4378 64.8687 10.4134 64.9542 10.4134C65.1089 10.4134 65.63 10.5803 65.6788 10.6455C65.691 10.6617 65.7684 10.7269 65.8457 10.7839C66.2488 11.0892 66.9164 11.8912 67.4131 12.6769C67.4823 12.7827 67.5556 12.9008 67.5759 12.9333C67.7835 13.2509 67.8405 13.3445 67.8405 13.3649C67.8405 13.3771 67.9057 13.4789 67.983 13.5888C68.0604 13.6987 68.1255 13.8005 68.1255 13.8127C68.1255 13.8249 68.1906 13.9389 68.268 14.061C68.3453 14.1831 68.4105 14.293 68.4105 14.3012C68.4105 14.3134 68.4593 14.3989 68.5204 14.4966C68.5814 14.5902 68.6547 14.7124 68.6832 14.7694C68.7117 14.8263 68.7728 14.924 68.8135 14.9933C68.8583 15.0584 68.9315 15.1887 68.9763 15.2782C69.0211 15.3678 69.1229 15.5388 69.2043 15.6568C69.2817 15.779 69.3468 15.8848 69.3468 15.897C69.3468 15.9052 69.5015 16.1738 69.6847 16.4914C69.8719 16.8089 70.0389 17.0979 70.0511 17.1305C70.0673 17.1631 70.1162 17.2445 70.161 17.3137C70.2058 17.3788 70.2587 17.4725 70.2831 17.5173C70.3035 17.562 70.3686 17.672 70.4256 17.7615C70.4826 17.8511 70.5396 17.9529 70.5518 17.9854C70.5681 18.018 70.6454 18.1523 70.7268 18.2785L70.8734 18.5146H73.3567C74.7245 18.5146 76.0517 18.4943 76.3082 18.4739C77.0776 18.4047 77.3096 18.2867 77.1997 18.0098C77.1549 17.8959 76.9554 17.6231 76.7967 17.4521C76.4832 17.1224 76.4059 16.9433 76.4466 16.6257C76.4873 16.3285 76.5931 16.0029 76.8944 15.2375C76.9758 15.034 77.0409 14.8426 77.0409 14.8101C77.0409 14.7775 77.0694 14.7124 77.102 14.6716C77.1346 14.6269 77.1631 14.5577 77.1631 14.517C77.1631 14.4518 77.1916 14.3785 77.3666 13.9755C77.4073 13.8859 77.448 13.7679 77.4602 13.7109C77.4765 13.6539 77.5132 13.5725 77.5457 13.5277C77.6027 13.4463 77.6597 13.4463 80.5908 13.4341C82.2314 13.4259 83.6522 13.4341 83.7499 13.4463C83.8802 13.4666 83.9331 13.4951 83.9575 13.5603C83.9779 13.6091 84.0227 13.7231 84.0552 13.8127C84.3117 14.4803 84.4216 14.7653 84.4745 14.8833C84.5071 14.9566 84.5315 15.038 84.5315 15.0665C84.5356 15.095 84.5682 15.1887 84.6129 15.2782C84.6577 15.3678 84.6903 15.4736 84.6944 15.5103C84.6944 15.551 84.7188 15.6405 84.7514 15.7138C84.8898 16.0395 84.959 16.3855 84.959 16.7682C84.959 17.2079 84.9264 17.2771 84.6537 17.4155C84.4379 17.5254 84.2995 17.7167 84.2669 17.9447C84.2303 18.2093 84.2588 18.2826 84.4338 18.364C84.6781 18.4821 85.419 18.5146 87.9511 18.5146C90.4752 18.5146 91.2486 18.4821 91.5295 18.3681C91.6842 18.307 91.6964 18.2907 91.6964 18.1523C91.6964 17.8796 91.3748 17.6353 90.7642 17.4481C90.2879 17.3015 89.8604 17.0572 89.7587 16.874C89.661 16.699 89.5185 16.4181 89.5185 16.3977C89.5185 16.3855 89.4452 16.2308 89.3597 16.0517C89.091 15.4818 88.977 15.2375 88.9526 15.1764C88.9404 15.1439 88.9119 15.0869 88.8956 15.0543C88.8549 14.9892 88.7653 14.7978 88.5618 14.3419C88.4926 14.1831 88.403 13.9959 88.3664 13.9185C88.3297 13.8412 88.2972 13.7679 88.2972 13.7516C88.2972 13.7353 88.2687 13.662 88.232 13.5847C88.1954 13.5073 88.1221 13.3527 88.0733 13.2427C87.9837 13.0392 87.9471 12.9537 87.7924 12.6077C87.7435 12.5059 87.7069 12.4 87.7069 12.3756C87.7069 12.3471 87.6906 12.3268 87.6662 12.3268C87.6458 12.3268 87.6255 12.2942 87.6255 12.2535C87.6255 12.2128 87.601 12.1476 87.5685 12.1029C87.54 12.0581 87.4993 11.9767 87.4871 11.9197C87.4708 11.8627 87.4016 11.6998 87.3324 11.5533C87.198 11.2602 87.1451 11.138 87.0148 10.8409C86.966 10.7269 86.9008 10.5722 86.8642 10.4948C86.7868 10.3157 86.7217 10.1651 86.6077 9.90453C86.4815 9.61142 86.4082 9.44044 86.3228 9.25318C86.282 9.16362 86.1803 8.92343 86.0989 8.72395C86.0174 8.5204 85.8953 8.24358 85.8302 8.10109C85.765 7.96268 85.7121 7.82834 85.7121 7.80391C85.7121 7.77948 85.6877 7.71028 85.6551 7.65329C85.5289 7.40496 85.4271 7.16477 85.4271 7.10777C85.4271 7.07114 85.3986 7.02228 85.3661 6.99379C85.3335 6.96529 85.305 6.90423 85.305 6.85537C85.305 6.80652 85.2887 6.74953 85.2684 6.7251C85.248 6.70475 85.1829 6.57041 85.1218 6.42385C85.0648 6.2773 84.9915 6.10224 84.963 6.03711C84.8857 5.86206 84.8002 5.66258 84.6944 5.40611C84.6414 5.28398 84.5478 5.06822 84.4827 4.92573C84.4216 4.78732 84.3687 4.6489 84.3687 4.62041C84.3687 4.59191 84.3524 4.5512 84.332 4.53085C84.3117 4.50642 84.2466 4.37208 84.1855 4.22552C84.1244 4.07897 84.0145 3.82657 83.9372 3.66373C83.8598 3.50089 83.7987 3.35433 83.7987 3.33805C83.7987 3.32177 83.7418 3.1915 83.6726 3.04494C83.5056 2.69484 83.2858 2.22668 83.2532 2.14933C83.237 2.11676 83.1555 1.95799 83.07 1.80329C82.9805 1.64453 82.8706 1.4369 82.8176 1.33513C82.7688 1.23336 82.667 1.07459 82.5897 0.980955C82.5164 0.887323 82.4553 0.797762 82.4553 0.777407C82.4553 0.757051 82.4228 0.716343 82.382 0.679703C82.3454 0.647135 82.2762 0.573858 82.2274 0.512793C82.0442 0.276676 81.7348 0.174902 81.5394 0.284819ZM65.1048 1.74223C66.6966 1.97427 66.9246 2.02312 67.5515 2.25924C67.9708 2.41394 68.1743 2.51978 68.5774 2.7844C68.8542 2.96759 69.3997 3.50496 69.473 3.6678C69.4933 3.71665 69.5544 3.83064 69.6033 3.9202C69.9289 4.49014 70.0592 5.31654 69.9371 6.00454C69.9004 6.22437 69.8434 6.44828 69.8149 6.50527C69.7254 6.68846 69.6155 6.93272 69.6155 6.96529C69.6114 6.98157 69.591 7.01007 69.5707 7.02635C69.5463 7.04264 69.5056 7.1037 69.473 7.16477C69.4404 7.2299 69.3997 7.27876 69.3794 7.27876C69.3631 7.27876 69.3468 7.30318 69.3468 7.32761C69.3468 7.3846 68.9519 7.77948 68.6791 7.99525C68.2802 8.31685 67.4945 8.6466 66.7821 8.78909C66.3668 8.87458 64.9623 8.93971 64.6937 8.89086L64.543 8.86236V5.28398V1.70152H64.6896C64.7669 1.70152 64.9542 1.7178 65.1048 1.74223ZM80.7455 6.44421C80.7455 6.47677 80.7455 6.51341 80.7455 6.52562C80.7455 6.53784 80.7781 6.57855 80.8188 6.61926C80.8595 6.65997 80.9328 6.77395 80.9816 6.87573C81.2096 7.3561 81.4376 7.85683 81.4376 7.87312C81.4376 7.88126 81.4905 8.00339 81.5516 8.1418C81.6574 8.36978 81.7348 8.55297 81.9017 8.96821C81.9302 9.03335 81.9831 9.15547 82.0157 9.23282C82.0523 9.31017 82.1744 9.60328 82.2925 9.88418C82.4105 10.1651 82.5693 10.5233 82.6426 10.6862C82.7199 10.8449 82.781 10.9996 82.781 11.0241C82.781 11.0525 82.8095 11.1218 82.838 11.1788C82.9764 11.4352 83.1515 11.8871 83.123 11.9156C83.0904 11.9482 78.653 11.9726 78.4373 11.94L78.2622 11.9156L78.3233 11.7975C78.3559 11.7324 78.3844 11.6469 78.3844 11.6062C78.3844 11.5655 78.4128 11.4963 78.4454 11.4556C78.478 11.4108 78.5065 11.3457 78.5065 11.3131C78.5106 11.2765 78.5431 11.1747 78.5879 11.0851C78.6327 10.9956 78.6652 10.9019 78.6693 10.8734C78.6693 10.849 78.6937 10.7757 78.7263 10.7106C78.7833 10.6007 78.8037 10.5437 78.9991 10.0267C79.0479 9.89232 79.1131 9.72541 79.1416 9.65213C79.1741 9.58293 79.1985 9.50151 79.1985 9.46894C79.1985 9.43637 79.227 9.37531 79.2596 9.33053C79.2922 9.28982 79.3207 9.22468 79.3207 9.19211C79.3207 9.15955 79.3573 9.05777 79.4021 8.96821C79.4469 8.87865 79.4794 8.78502 79.4835 8.75652C79.4835 8.73209 79.512 8.65882 79.5446 8.59368C79.5771 8.53262 79.6423 8.36978 79.6911 8.23543C79.74 8.10109 79.8051 7.93418 79.8336 7.8609C79.8662 7.7917 79.8906 7.71028 79.8906 7.67771C79.8906 7.64514 79.9191 7.58408 79.9517 7.5393C79.9842 7.49859 80.0127 7.42938 80.0127 7.39274C80.0127 7.3561 80.0372 7.27468 80.0697 7.20955C80.1023 7.14848 80.1797 6.98972 80.2448 6.85944C80.3547 6.63147 80.4036 6.53784 80.4728 6.43199C80.5216 6.35872 80.7455 6.36686 80.7455 6.44421Z" fill="black"/>
<path d="M118.504 0.276455C117.67 0.304953 117.462 0.329378 117.234 0.427082C117.112 0.475933 117.1 0.496288 117.1 0.655056C117.104 0.87896 117.226 1.01737 117.56 1.168C118.036 1.38376 118.174 1.58731 118.235 2.16946C118.256 2.39336 118.272 2.60505 118.268 2.63762C118.264 2.67019 118.276 2.85338 118.292 3.04472C118.309 3.23605 118.329 3.96883 118.341 4.67311C118.353 5.37739 118.382 6.44805 118.402 7.05463C118.423 7.65713 118.451 8.93949 118.463 9.90431C118.484 11.5897 118.565 13.1855 118.651 13.6089C118.675 13.7188 118.708 13.9305 118.728 14.0771C118.748 14.2236 118.785 14.3783 118.809 14.4231C118.83 14.4679 118.866 14.5778 118.887 14.6674C118.932 14.8587 119.009 15.0907 119.058 15.1762C119.078 15.2088 119.123 15.2902 119.155 15.3594C119.188 15.4246 119.253 15.5345 119.298 15.6037C119.343 15.6688 119.392 15.7543 119.408 15.7869C119.457 15.9009 119.88 16.3975 120.194 16.7191C120.816 17.3501 121.305 17.7124 122.009 18.0585C123.32 18.7098 125.05 18.9052 127.147 18.6366C128.189 18.5022 128.718 18.2987 129.573 17.7124C130.086 17.3623 130.127 17.3257 130.636 16.825C131.071 16.3934 131.222 16.2103 131.527 15.7462C131.653 15.5548 131.775 15.3798 131.796 15.3513C131.82 15.3228 131.837 15.278 131.837 15.2495C131.837 15.221 131.873 15.1518 131.918 15.0948C131.963 15.0378 131.999 14.9686 131.999 14.9401C131.999 14.9116 132.028 14.8587 132.06 14.8261C132.093 14.7895 132.122 14.7284 132.122 14.6918C132.122 14.6511 132.15 14.5941 132.183 14.5656C132.215 14.5371 132.244 14.476 132.244 14.4272C132.244 14.3824 132.272 14.2888 132.305 14.2236C132.341 14.1544 132.386 13.9997 132.402 13.8776C132.423 13.7514 132.459 13.5478 132.484 13.4257C132.545 13.1 132.647 11.3658 132.671 10.1486C132.683 9.56642 132.712 8.68709 132.732 8.1945C132.757 7.70191 132.793 6.15494 132.814 4.75453C132.838 3.35411 132.862 2.16539 132.871 2.10839C132.879 2.0514 132.887 1.99441 132.891 1.97812C132.895 1.94963 133.09 1.79086 133.436 1.52217C133.559 1.42854 133.599 1.39597 133.892 1.15579C134.088 0.992947 134.279 0.732405 134.279 0.63063C134.279 0.532927 134.141 0.443365 133.892 0.378229C133.351 0.239817 130.851 0.203178 129.679 0.321236C129.215 0.366016 128.832 0.467791 128.787 0.557352C128.694 0.732405 128.853 0.862677 129.63 1.25756C130.151 1.52217 130.326 1.66059 130.534 1.96184C130.705 2.21017 130.774 2.38115 130.823 2.65798C130.839 2.76789 130.872 2.92666 130.896 3.00401C130.937 3.15464 130.953 3.35411 131.026 4.46956C131.071 5.19419 131.059 12.3021 131.014 12.5504C131.002 12.6156 130.978 12.8273 130.961 13.0145C130.945 13.2059 130.908 13.4298 130.876 13.5193C130.843 13.6089 130.819 13.7147 130.819 13.7595C130.819 13.8043 130.794 13.8898 130.762 13.9468C130.729 14.0079 130.627 14.2155 130.53 14.415C130.294 14.879 130.298 14.875 130.082 15.1559C129.74 15.5996 129.431 15.8398 128.804 16.1614C127.973 16.5848 127.448 16.7313 126.752 16.7273C126.345 16.7273 125.913 16.6377 125.486 16.4708C125.124 16.3283 124.436 15.9619 124.167 15.7706C123.691 15.4246 123.226 14.9198 123.035 14.5249C123.007 14.4679 122.962 14.3987 122.933 14.3702C122.905 14.3417 122.88 14.2847 122.88 14.244C122.88 14.2073 122.864 14.1585 122.848 14.1381C122.807 14.0852 122.665 13.7107 122.583 13.4257C122.404 12.811 122.376 12.4283 122.372 10.4335C122.367 9.37916 122.376 8.21893 122.392 7.84847C122.42 7.22561 122.441 6.64346 122.494 4.71382C122.506 4.29858 122.534 3.749 122.555 3.49253C122.575 3.23605 122.604 2.80453 122.616 2.53585C122.661 1.66873 122.779 1.44483 123.349 1.168C123.699 0.997019 123.821 0.874889 123.825 0.683554C123.829 0.520714 123.727 0.414869 123.499 0.357876C123.133 0.260172 120.336 0.219461 118.504 0.276455Z" fill="black"/>
<path d="M137.231 0.276419C135.92 0.325272 135.631 0.394478 135.68 0.65502C135.708 0.809717 135.904 0.996983 136.246 1.19646C136.51 1.35116 136.543 1.37965 136.669 1.56285C136.893 1.88038 137.027 2.59688 137.088 3.83852C137.113 4.33111 137.145 4.83591 137.158 4.95804C137.19 5.27151 137.194 13.2832 137.162 13.731C137.145 13.9305 137.113 14.4923 137.088 14.9726C137.064 15.453 137.015 15.9822 136.983 16.1492C136.95 16.312 136.926 16.4952 136.926 16.5563C136.926 16.6132 136.901 16.7109 136.869 16.772C136.836 16.8331 136.799 16.9349 136.783 17.0041C136.771 17.0692 136.73 17.1465 136.698 17.175C136.665 17.1995 136.641 17.2361 136.641 17.2565C136.641 17.3216 136.474 17.46 136.242 17.5903C135.957 17.745 135.721 17.9689 135.688 18.1195C135.664 18.2131 135.68 18.2376 135.774 18.2742C135.944 18.3393 136.885 18.4208 138.086 18.4778C139.555 18.547 145.825 18.551 147.184 18.4818C148.337 18.4208 149.411 18.3271 149.558 18.2742C149.684 18.2254 149.696 18.1643 149.749 17.3745C149.77 17.0285 149.806 16.5888 149.831 16.3975C149.851 16.2061 149.879 15.7665 149.892 15.4204C149.904 15.0744 149.932 14.5248 149.953 14.1992C150.042 12.7906 150.006 12.0456 149.839 11.9805C149.778 11.956 149.635 12.0334 149.513 12.1555C149.399 12.2695 149.139 12.6807 149.139 12.7458C149.139 12.7784 149.11 12.8272 149.077 12.8557C149.045 12.8842 149.016 12.9412 149.016 12.986C149.016 13.1692 148.52 14.2521 148.223 14.708C147.718 15.4856 146.895 16.2265 146.183 16.544C145.743 16.7354 145.699 16.7557 145.458 16.8249C144.982 16.9593 144.546 17.0163 143.785 17.0366C142.658 17.0692 142.259 16.9756 141.9 16.5929C141.334 15.9904 141.245 15.738 141.2 14.647C141.106 12.2451 141.135 4.27819 141.241 3.16681C141.318 2.38519 141.42 1.91295 141.579 1.60356C141.644 1.4855 141.937 1.25345 142.165 1.14761C142.344 1.05805 142.617 0.789362 142.649 0.667233C142.731 0.345625 142.332 0.284561 139.861 0.260136C138.908 0.251993 137.723 0.256063 137.231 0.276419Z" fill="black"/>
<path d="M48.3821 0.443602C47.1771 0.569801 45.8296 1.04611 44.82 1.70967C44.3274 2.03535 43.8226 2.40174 43.8226 2.44245C43.8226 2.45874 43.8063 2.47502 43.7819 2.47502C43.7616 2.47502 43.6924 2.52387 43.6272 2.58494C42.9433 3.24036 42.756 3.4317 42.3978 3.85915C42.2757 4.00571 42.1495 4.14005 42.125 4.15633C42.0965 4.17262 42.0721 4.2174 42.0721 4.24589C42.0721 4.27846 42.0558 4.30696 42.0355 4.30696C42.011 4.30696 41.9703 4.35174 41.9418 4.40466C41.9133 4.45759 41.7871 4.65299 41.6609 4.84026C41.4167 5.20257 40.9729 6.09005 40.9729 6.21218C40.9729 6.23253 40.9444 6.30581 40.9119 6.36687C40.8793 6.43201 40.8508 6.5175 40.8508 6.55821C40.8508 6.59892 40.8264 6.68034 40.7938 6.74547C40.7612 6.80654 40.7246 6.92867 40.7124 7.01823C40.7002 7.10372 40.6635 7.32355 40.631 7.50268C40.4926 8.25174 40.4437 9.39161 40.5211 10.0145C40.5414 10.1773 40.5699 10.4826 40.5821 10.6862C40.5943 10.8938 40.6228 11.0973 40.6432 11.1421C40.6676 11.1828 40.6961 11.3172 40.7043 11.4393C40.7165 11.5655 40.7531 11.7568 40.7897 11.8627C40.8223 11.9726 40.8793 12.1639 40.9159 12.2861C40.9526 12.4082 41.0055 12.571 41.0381 12.6443C41.0706 12.7176 41.0951 12.7949 41.0951 12.8153C41.0951 12.8479 41.2091 13.1043 41.4167 13.5481C41.4411 13.6051 41.4981 13.7028 41.5388 13.772C41.5836 13.8371 41.665 13.9837 41.7261 14.0936C41.7871 14.1994 41.8523 14.3093 41.8726 14.3378C41.893 14.3623 42.0355 14.5455 42.1861 14.749C42.5525 15.2294 42.6665 15.3556 43.1509 15.8278C43.7208 16.3855 43.9081 16.5525 44.2501 16.8049C44.3844 16.9066 44.5025 16.9962 44.5147 17.0084C44.5554 17.0532 45.0683 17.3667 45.2963 17.4888C45.907 17.8185 46.9695 18.1564 47.9343 18.3315C48.3903 18.417 49.9332 18.4495 50.4176 18.3885C51.8465 18.2053 53.2958 17.6353 54.4682 16.7926C54.627 16.6787 54.7613 16.5728 54.7654 16.5525C54.7736 16.5362 54.7939 16.5199 54.8143 16.5199C54.9323 16.5199 56.0722 15.3719 56.4142 14.9078C56.5607 14.7083 56.7073 14.517 56.7398 14.4763C56.7724 14.4396 56.8131 14.3745 56.8294 14.3256C56.8416 14.2768 56.8701 14.2401 56.8905 14.2401C56.9067 14.2401 56.9312 14.2076 56.9434 14.1669C56.9556 14.1302 57.0411 13.9674 57.1306 13.8127C57.3383 13.4504 57.5459 13.0188 57.6802 12.6728C57.9163 12.054 58.071 11.4515 58.1728 10.7391C58.2054 10.5071 58.2461 10.2791 58.2583 10.2424C58.2909 10.1366 58.2909 8.73618 58.2583 8.63441C58.242 8.58556 58.2054 8.34944 58.1728 8.10518C58.1402 7.86499 58.0955 7.5841 58.067 7.48232C57.953 7.01009 57.7861 6.47679 57.6802 6.23253C57.6477 6.16332 57.6232 6.07783 57.6232 6.04527C57.6232 6.00863 57.6069 5.97199 57.5866 5.9557C57.5662 5.94349 57.5255 5.86614 57.497 5.78065C57.4726 5.69923 57.436 5.62188 57.4238 5.60967C57.4115 5.59746 57.3423 5.47126 57.2691 5.3247C57.1266 5.03566 56.923 4.66521 56.8905 4.63264C56.8579 4.60007 56.5485 4.12784 56.5281 4.08306C56.52 4.0627 56.4956 4.02606 56.4793 4.00164C55.6081 2.92283 55.1359 2.45874 54.3095 1.88066C53.597 1.384 52.9782 1.09496 51.9849 0.80999C50.727 0.447672 49.5301 0.329615 48.3821 0.443602ZM50.1571 2.07199C50.7392 2.22262 51.1504 2.45059 51.6185 2.89026C51.8465 3.10195 52.3717 3.73702 52.3717 3.80216C52.3717 3.81844 52.3961 3.86322 52.4287 3.89579C52.5019 3.98128 52.8195 4.60007 52.8195 4.66113C52.8195 4.68556 52.8317 4.71406 52.852 4.7222C52.8765 4.73441 52.966 4.9461 53.1248 5.36541C53.2103 5.60153 53.3446 6.06155 53.4098 6.3628C53.4464 6.5175 53.4912 6.72105 53.5156 6.81061C53.5563 6.97752 53.65 7.62888 53.7151 8.17439C53.7639 8.57334 53.7639 10.4012 53.7151 10.7391C53.6988 10.8857 53.6622 11.1503 53.6377 11.3294C53.6093 11.5085 53.5645 11.765 53.536 11.8993C53.5034 12.0337 53.4546 12.2454 53.4301 12.3675C53.365 12.6606 53.194 13.2143 53.1207 13.3567C53.0882 13.4219 53.0637 13.4992 53.0637 13.5277C53.0637 13.6051 52.8276 14.118 52.5467 14.6676C52.5101 14.7327 52.4287 14.8549 52.3676 14.9363C52.3025 15.0177 52.2495 15.0991 52.2495 15.1154C52.2495 15.1724 51.8262 15.6853 51.59 15.9174C50.9875 16.5117 50.2955 16.8415 49.5057 16.9148C48.9358 16.9677 47.9384 16.6705 47.4702 16.3041C47.0509 15.9784 46.5746 15.4167 46.3792 15.0136C46.3507 14.9566 46.2489 14.7775 46.1553 14.6187C46.0576 14.4559 45.9721 14.2768 45.9558 14.2198C45.9436 14.1669 45.907 14.1017 45.8744 14.0732C45.8418 14.0488 45.8174 14 45.8174 13.9674C45.8174 13.9348 45.793 13.8575 45.7604 13.8005C45.7278 13.7394 45.6627 13.5969 45.6098 13.487C45.5609 13.373 45.4958 13.2346 45.4673 13.1735C45.4347 13.1166 45.4103 13.0433 45.4103 13.0107C45.4103 12.9822 45.3859 12.9089 45.3533 12.8479C45.3207 12.7909 45.2841 12.6647 45.2719 12.5751C45.2597 12.4815 45.2312 12.3716 45.2068 12.3268C45.1294 12.1802 45.0439 10.7025 45.0439 9.43639C45.0439 7.55153 45.1538 6.31395 45.3615 5.94756C45.3859 5.89871 45.4103 5.8295 45.4103 5.79287C45.4103 5.75623 45.4347 5.67481 45.4632 5.61781C45.4958 5.55675 45.5569 5.42648 45.6057 5.3247C45.9884 4.49829 46.3466 3.83066 46.5217 3.60268C46.5827 3.52126 46.6316 3.43984 46.6316 3.41949C46.6316 3.35435 47.2504 2.73963 47.4458 2.60936C48.2559 2.06385 49.3144 1.85216 50.1571 2.07199Z" fill="black"/>
<path d="M8.97451 0.545361C8.75875 0.586071 8.53891 0.687845 8.49413 0.777407C8.47378 0.826258 8.41271 0.95653 8.36386 1.07052C8.31908 1.18043 8.24987 1.32699 8.22138 1.38805C8.18881 1.45319 8.16031 1.53054 8.16031 1.56718C8.16031 1.59974 8.13182 1.67709 8.09925 1.73409C8.06668 1.79515 7.97305 2.00684 7.89163 2.21039C7.57002 3.00423 7.4601 3.27291 7.40311 3.38283C7.37054 3.44797 7.34612 3.51717 7.34612 3.53753C7.34612 3.56195 7.31355 3.65559 7.27284 3.74922C7.23213 3.84285 7.16292 4.00162 7.12629 4.10339C6.98787 4.44536 6.95123 4.53085 6.86167 4.71404C6.81689 4.81581 6.77618 4.91759 6.77618 4.94609C6.77618 4.97051 6.75176 5.04379 6.71919 5.10892C6.68662 5.16999 6.62963 5.30433 6.59299 5.40611C6.52378 5.59337 6.40165 5.89462 6.30802 6.11853C6.18589 6.4035 5.94977 6.98565 5.89278 7.13627C5.86021 7.22583 5.79915 7.38053 5.75844 7.4823C5.71773 7.58408 5.65259 7.74692 5.61595 7.84869C5.53046 8.0726 5.43683 8.28022 5.36355 8.42677C5.33506 8.48376 5.31063 8.56111 5.31063 8.60182C5.31063 8.63846 5.27806 8.73616 5.23328 8.81758C5.05009 9.18397 5.02566 9.24504 5.02566 9.31017C5.02566 9.34681 4.99716 9.41602 4.9646 9.4608C4.93203 9.50151 4.90353 9.56257 4.90353 9.59514C4.90353 9.62364 4.8384 9.78648 4.76105 9.95339C4.6837 10.1203 4.61856 10.275 4.61856 10.2953C4.61856 10.3279 4.56157 10.4745 4.4313 10.7594C4.31731 11.0241 4.04863 11.6713 4.04863 11.6917C4.04863 11.7039 3.9957 11.8301 3.93057 11.9685C3.8695 12.111 3.77587 12.3268 3.72702 12.4489C3.67817 12.571 3.61303 12.7257 3.58047 12.7949C3.55197 12.8601 3.45834 13.0799 3.37692 13.2834C3.2955 13.4829 3.20594 13.7028 3.17337 13.772C3.10823 13.9144 2.96168 14.2564 2.90061 14.403C2.87619 14.46 2.82733 14.578 2.78662 14.6676C2.74591 14.7571 2.68078 14.9037 2.64414 14.9933C2.61157 15.0828 2.55458 15.209 2.52201 15.2701C2.48944 15.3352 2.46095 15.4044 2.46095 15.4207C2.46095 15.4411 2.36731 15.6528 2.2574 15.8889C2.14341 16.125 2.05385 16.3285 2.05385 16.3367C2.05385 16.3448 1.98871 16.4669 1.90322 16.6054C1.65489 17.0328 1.25594 17.3503 0.657504 17.6027C0.038716 17.8592 -0.189259 18.2297 0.173058 18.3803C0.250407 18.4129 0.535375 18.4577 0.80813 18.4821C1.43506 18.535 4.32138 18.5024 4.57785 18.4373C4.94831 18.3437 5.03787 18.2419 4.92796 18.0343C4.83433 17.8552 4.59821 17.6027 4.37838 17.4562C4.08119 17.2526 4.00792 17.1183 4.00792 16.7804C4.01199 16.5891 4.03641 16.4466 4.08934 16.3367C4.13412 16.2471 4.16669 16.1372 4.17076 16.0883C4.17076 16.0436 4.19925 15.9703 4.23182 15.9255C4.26439 15.8848 4.29289 15.7993 4.29289 15.7423C4.29289 15.6812 4.32138 15.612 4.35395 15.5835C4.38652 15.555 4.41502 15.494 4.41502 15.4451C4.41502 15.3963 4.43944 15.323 4.47201 15.2782C4.50051 15.2334 4.54122 15.152 4.5575 15.095C4.57378 15.038 4.62263 14.9118 4.66742 14.8101C4.7122 14.7083 4.76105 14.5902 4.7814 14.5454C4.79769 14.5007 4.85061 14.3785 4.89946 14.2768C4.94424 14.175 4.98495 14.0651 4.98495 14.0325C4.98495 13.9999 5.01345 13.9389 5.04602 13.8982C5.07858 13.8534 5.10708 13.7801 5.10708 13.7353C5.10708 13.6865 5.14372 13.6051 5.1885 13.5481L5.26585 13.4463L8.18881 13.4341C9.79685 13.43 11.1688 13.4381 11.242 13.4504C11.3805 13.4748 11.3764 13.4707 11.6288 14.0366C11.7265 14.2564 11.7998 14.4274 11.8568 14.5658C11.8812 14.6228 11.9667 14.8101 12.044 14.9851C12.1254 15.1561 12.1906 15.3108 12.1906 15.323C12.1906 15.3352 12.215 15.4044 12.2476 15.4736C12.3982 15.8034 12.4755 16.0069 12.4755 16.0517C12.4755 16.0802 12.5122 16.182 12.5529 16.2797C12.6547 16.5199 12.6954 16.8822 12.6384 17.0817C12.5977 17.2486 12.4308 17.4073 12.1824 17.5335C12.0237 17.615 11.9138 17.7249 11.7835 17.9325C11.4537 18.4536 11.8405 18.5146 15.4677 18.5146C18.4762 18.5146 19.0502 18.4699 19.1886 18.2215C19.2415 18.1279 19.2415 18.1035 19.1804 18.0098C19.0827 17.8633 18.8466 17.7167 18.5291 17.5987C18.2441 17.4969 17.8004 17.2282 17.5724 17.0206C17.4096 16.87 16.9984 16.1006 16.457 14.9322C16.3878 14.7856 16.2412 14.4762 16.1313 14.2401C16.0214 14.004 15.8992 13.7475 15.8667 13.6702C15.83 13.5928 15.7853 13.4992 15.7649 13.4666C15.7486 13.4341 15.7201 13.3771 15.7079 13.3445C15.6835 13.2753 15.5939 13.084 15.4066 12.6728C15.3374 12.514 15.256 12.3308 15.2275 12.2657C15.199 12.1965 15.1095 12.0052 15.028 11.8382C14.9426 11.6673 14.8774 11.5126 14.8774 11.4922C14.8774 11.4719 14.8204 11.3375 14.7512 11.191C14.682 11.0444 14.5925 10.849 14.5517 10.7594C14.4459 10.5152 14.3645 10.3361 14.2627 10.1081C14.2139 9.9941 14.1528 9.84754 14.1243 9.7824C14.0958 9.7132 14.0307 9.56664 13.9818 9.45673C13.8312 9.11069 13.7864 9.01299 13.7457 8.90715C13.6968 8.78502 13.5584 8.46748 13.4444 8.21508C13.363 8.03596 13.3427 7.98303 13.1676 7.58408C13.1228 7.47009 13.0618 7.34796 13.0373 7.30318C13.017 7.26247 12.9885 7.18105 12.9803 7.12813C12.9681 7.07114 12.9356 6.99786 12.903 6.96529C12.8704 6.93272 12.8419 6.8798 12.8419 6.84316C12.8419 6.81059 12.8175 6.73324 12.789 6.67625C12.7198 6.54191 12.5651 6.20402 12.4959 6.03711C12.4674 5.9679 12.4023 5.82135 12.3534 5.71143C12.2231 5.41832 12.158 5.26362 12.0847 5.08857C12.0481 5.00715 11.9952 4.88502 11.9626 4.82396C11.93 4.75882 11.9056 4.67333 11.9056 4.63262C11.9056 4.59598 11.8771 4.53899 11.8445 4.51049C11.812 4.48199 11.7835 4.44129 11.7835 4.41686C11.7835 4.3965 11.7428 4.29066 11.698 4.18888C11.6084 3.99755 11.5677 3.91206 11.4171 3.55381C11.3682 3.43983 11.3112 3.32177 11.2909 3.2892C11.2705 3.25663 11.242 3.19964 11.2298 3.16707C11.1728 3.01237 10.8594 2.32845 10.7617 2.14933C10.7454 2.11676 10.6436 1.92135 10.5378 1.72187C10.1592 0.985027 9.96783 0.736696 9.69914 0.626781C9.55259 0.565716 9.13328 0.520935 8.97451 0.545361ZM8.29873 6.38721C8.28651 6.40757 8.29465 6.42385 8.31501 6.42385C8.35572 6.42385 8.48192 6.67625 8.62848 7.0345C8.75875 7.35203 8.85645 7.58001 8.92159 7.72656C8.95822 7.80391 9.01115 7.92197 9.03964 7.99118C9.06814 8.05631 9.1577 8.25579 9.23505 8.43084C9.31647 8.60589 9.38161 8.76466 9.38161 8.78502C9.38161 8.8013 9.4101 8.87051 9.44267 8.93564C9.49966 9.04556 9.64215 9.37124 9.70728 9.53815C9.72357 9.58293 9.77649 9.72134 9.82941 9.84347C9.87826 9.9656 9.9434 10.1203 9.96783 10.1895C9.99632 10.2546 10.0574 10.3931 10.1022 10.4948C10.1469 10.5966 10.2121 10.7513 10.2487 10.8409C10.4278 11.309 10.5255 11.5574 10.6151 11.7609L10.6802 11.9115L10.55 11.936C10.3912 11.9685 6.04341 11.9644 5.88057 11.936C5.75844 11.9075 5.75437 11.8952 5.86428 11.6428C5.89685 11.5736 5.9457 11.4515 5.97827 11.3782C6.00677 11.309 6.0719 11.1625 6.12075 11.0607C6.16553 10.9589 6.20624 10.8449 6.20624 10.8124C6.20624 10.7757 6.23474 10.7269 6.26731 10.6984C6.29988 10.6699 6.32837 10.6129 6.32837 10.5681C6.32837 10.5233 6.3528 10.4378 6.38537 10.3808C6.44236 10.2709 6.65812 9.76205 6.81689 9.35495C6.86167 9.23282 6.91866 9.09441 6.93902 9.04963C6.9553 9.00485 7.00823 8.88679 7.05301 8.78502C7.09372 8.68324 7.16292 8.5204 7.20363 8.41863C7.28505 8.21915 7.37869 7.99118 7.48453 7.75913C7.52117 7.67771 7.54967 7.58408 7.54967 7.55151C7.54967 7.51894 7.57816 7.47009 7.61073 7.44159C7.6433 7.4131 7.6718 7.35203 7.6718 7.30318C7.6718 7.25433 7.69622 7.18105 7.72879 7.13627C7.75729 7.09149 7.798 7.01007 7.81428 6.95308C7.83056 6.89608 7.90791 6.72103 7.98526 6.55819C8.1196 6.2773 8.12774 6.26508 8.22138 6.30986C8.27837 6.33429 8.31094 6.37093 8.29873 6.38721Z" fill="black"/>
<path d="M89.9873 6.91664C89.9791 7.2871 89.9954 8.96027 90.0076 9.02947C90.0158 9.07832 90.0361 9.79075 90.0524 10.6131C90.085 12.3351 90.0483 12.848 89.8774 13.1167C89.8204 13.2022 89.7919 13.2877 89.8122 13.304C89.9588 13.4506 92.6008 13.4628 93.3662 13.3244C93.8547 13.2348 94.2455 13.1045 94.5346 12.9295C94.7707 12.787 95.1981 12.3962 95.1981 12.3188C95.1981 12.2944 95.2225 12.2415 95.2551 12.2089C95.4587 11.9769 95.7273 10.9225 95.7273 10.3566C95.7273 9.94137 95.4994 8.9562 95.3935 8.91549C95.3772 8.90734 95.361 8.86663 95.361 8.82592C95.361 8.78929 95.3325 8.73229 95.2999 8.70379C95.2673 8.6753 95.2388 8.63052 95.2388 8.60202C95.2388 8.57759 95.2022 8.5206 95.1574 8.47989C95.1126 8.43918 95.076 8.38219 95.076 8.35369C95.076 8.32519 94.9579 8.18271 94.8195 8.04023C94.2374 7.45401 93.529 7.11204 92.6456 6.99806C92.4706 6.97363 92.2467 6.94513 92.1449 6.93292C92.0431 6.91664 91.518 6.89628 90.9765 6.88407C90.1542 6.86371 89.9873 6.87186 89.9873 6.91664ZM92.7067 7.52728C92.8451 7.60056 92.9591 7.67384 92.9591 7.69012C92.9591 7.71048 92.9794 7.72676 92.9998 7.72676C93.0364 7.72676 93.0975 7.77154 93.3703 8.01987C93.5453 8.17864 93.7285 8.43918 93.8384 8.69158C93.8954 8.82185 93.9605 8.96434 93.985 9.00505C94.0257 9.0824 94.0542 9.22895 94.1437 9.84367C94.2252 10.4095 94.1112 11.3133 93.8832 11.8832C93.8221 12.0298 93.7733 12.1641 93.7733 12.1763C93.7733 12.2211 93.4883 12.616 93.354 12.7585C93.0649 13.0679 92.5886 13.1737 92.1815 13.0231C91.8925 12.9132 91.7337 12.7626 91.6319 12.5102C91.5587 12.3188 91.5546 12.1886 91.5546 10.2508C91.5546 8.34555 91.5587 8.17457 91.6319 7.90996C91.75 7.49064 91.9251 7.34409 92.267 7.38073C92.3688 7.39294 92.5642 7.45808 92.7067 7.52728Z" fill="black"/>
<path d="M98.8814 6.94073C98.2179 7.08322 97.595 7.42518 97.1472 7.90148C96.9396 8.11724 96.4999 8.78488 96.4999 8.87852C96.4999 8.90701 96.4633 9.00065 96.4185 9.09021C96.3737 9.17977 96.3371 9.29783 96.3371 9.35482C96.3371 9.41182 96.3127 9.48509 96.2882 9.50952C96.2516 9.54616 96.2312 9.77413 96.2231 10.2749C96.2068 10.9018 96.219 11.028 96.2964 11.3292C96.3412 11.5206 96.4104 11.7241 96.4389 11.7852C96.4714 11.8503 96.4999 11.9195 96.4999 11.948C96.4999 11.9725 96.5243 12.0213 96.5528 12.0498C96.5773 12.0783 96.6383 12.176 96.6831 12.2656C96.8052 12.5098 97.3793 13.0635 97.6602 13.21C98.2871 13.5398 98.9425 13.6945 99.5328 13.6538C100.074 13.6212 100.534 13.4665 101.182 13.1001C101.365 12.9983 101.996 12.4121 101.996 12.3429C101.996 12.3144 102.02 12.2737 102.049 12.2574C102.11 12.2167 102.212 12.0498 102.346 11.7567C102.403 11.6346 102.464 11.5002 102.488 11.4636C102.509 11.4229 102.525 11.3496 102.525 11.3007C102.525 11.2478 102.549 11.1623 102.578 11.1053C102.647 10.971 102.667 10.739 102.663 10.169C102.663 9.71307 102.594 9.32225 102.464 9.00879C102.382 8.81745 102.203 8.44699 102.146 8.35743C102.024 8.15795 101.69 7.75086 101.54 7.61244C101.45 7.53102 101.336 7.42518 101.287 7.38447C101.145 7.2542 100.546 6.99366 100.253 6.93259C99.9033 6.85524 99.2478 6.85931 98.8814 6.94073ZM99.9277 7.55138C100.241 7.72236 100.559 8.16203 100.73 8.66276C100.758 8.7401 100.819 8.98029 100.868 9.19198C101.035 9.92883 100.974 11.374 100.746 11.9806C100.542 12.5383 100.282 12.8884 99.9643 13.0472C99.7445 13.1571 99.0972 13.149 98.9018 13.0391C98.686 12.9129 98.3319 12.5302 98.3319 12.4162C98.3319 12.3958 98.3034 12.3551 98.2708 12.3266C98.2382 12.2981 98.2097 12.2452 98.2097 12.2086C98.2097 12.1719 98.1853 12.0946 98.1527 12.0335C98.1202 11.9725 98.0835 11.8625 98.0672 11.7893C98.051 11.716 98.0184 11.5816 97.9858 11.4921C97.9126 11.26 97.7945 10.2993 97.8189 10.108C97.8311 10.0184 97.8637 9.73342 97.8881 9.47695C97.9126 9.22048 97.9614 8.95994 97.9899 8.89887C98.0225 8.83781 98.0469 8.76046 98.0469 8.72382C98.0469 8.66276 98.169 8.39814 98.3115 8.1376C98.34 8.08875 98.4418 7.96255 98.5395 7.86077C98.9954 7.39668 99.4514 7.29491 99.9277 7.55138Z" fill="black"/>
</svg>
