<svg width="151" height="33" viewBox="0 0 151 33" fill="none" xmlns="http://www.w3.org/2000/svg">
<path d="M8.22273 32.6919C5.6104 32.76 3.04725 31.9735 0.922728 30.4519C0.192728 29.8519 0.0527283 29.3919 0.452728 28.6619C0.732728 28.1419 0.982728 27.6019 1.24273 27.0919C1.70273 26.1719 2.14273 26.0119 3.05273 26.5519C4.73037 27.6073 6.68122 28.1463 8.66273 28.1019C11.8727 28.0019 13.0827 26.0019 13.0227 23.2719C12.4381 23.8742 11.7287 24.3411 10.9444 24.64C10.1601 24.9389 9.31987 25.0624 8.48273 25.0019C6.6864 24.977 4.94106 24.4011 3.48273 23.3519C2.18534 22.426 1.1816 21.1466 0.591178 19.6661C0.000752747 18.1856 -0.151446 16.5665 0.152728 15.0019C0.335647 13.2684 1.04222 11.6318 2.17839 10.3098C3.31456 8.98786 4.82642 8.04332 6.51273 7.60193C7.71117 7.21672 8.99415 7.17851 10.2134 7.49173C11.4326 7.80494 12.5383 8.45679 13.4027 9.37193C13.4027 8.58193 13.4627 8.08193 13.7927 7.82193C14.2966 7.60576 14.8476 7.5231 15.3927 7.58193C17.9527 7.58193 17.8927 7.48193 17.8727 9.25193C17.8727 12.9319 17.8727 18.2519 17.8727 21.8819C17.8727 26.6719 16.3627 32.6919 8.22273 32.6919ZM13.2227 16.3219C13.2667 15.7426 13.1908 15.1605 12.9999 14.6118C12.809 14.0631 12.5071 13.5597 12.1131 13.1328C11.719 12.7059 11.2413 12.3647 10.7096 12.1306C10.1779 11.8965 9.60368 11.7744 9.02273 11.7719C8.42873 11.7432 7.83541 11.8412 7.28223 12.0595C6.72904 12.2777 6.22865 12.6113 5.81433 13.0379C5.40001 13.4645 5.08125 13.9744 4.87925 14.5338C4.67724 15.0931 4.59661 15.689 4.64273 16.2819C4.64273 19.2119 6.49273 20.8619 9.00273 20.8819C9.58592 20.8841 10.1632 20.7647 10.6977 20.5315C11.2323 20.2983 11.7124 19.9563 12.1075 19.5274C12.5026 19.0984 12.804 18.5918 12.9926 18.04C13.1812 17.4881 13.2527 16.903 13.2027 16.3219H13.2227Z" fill="#FE012F"/>
<path d="M132.593 31.4419C131.983 31.1219 132.163 30.4419 132.453 29.9319C132.553 29.7319 132.673 29.5319 132.793 29.3319C133.613 27.7419 133.613 27.7219 135.303 28.1219C135.77 28.2829 136.28 28.2705 136.739 28.0869C137.198 27.9033 137.575 27.5608 137.803 27.1219C138.344 26.2694 138.812 25.3729 139.203 24.4419C139.203 24.4419 134.623 14.0019 132.533 9.20193C131.943 7.85193 132.003 7.77193 133.453 7.77193C134.383 7.77193 135.303 7.77193 136.233 7.77193C136.509 7.73497 136.79 7.80266 137.019 7.96175C137.249 8.12083 137.41 8.35984 137.473 8.63193C138.703 11.7719 141.373 18.6319 141.373 18.6319C141.883 17.1419 142.463 15.6319 142.943 14.2719C143.593 12.4019 144.293 10.5519 144.943 8.66193C144.999 8.35442 145.174 8.08169 145.431 7.90358C145.688 7.72547 146.005 7.65655 146.313 7.71193C147.163 7.77193 148.023 7.71193 148.893 7.71193C150.073 7.71193 150.273 8.03193 149.833 9.12193C148.833 11.7719 147.723 14.4319 146.653 17.1219C145.333 20.4019 143.653 24.4019 142.353 27.6619C141.533 29.6619 139.573 32.5819 136.353 32.5819C135.005 32.6535 133.674 32.2501 132.593 31.4419Z" fill="#FE012F"/>
<path d="M51.4727 9.14193C52.71 7.98885 54.3316 7.33665 56.0227 7.31193C57.2982 7.31423 58.5558 7.6115 59.6973 8.18051C60.8387 8.74951 61.8331 9.57483 62.6027 10.5919C65.0727 13.5919 65.0927 19.4919 62.3627 22.4519C61.7 23.276 60.8761 23.9562 59.9414 24.4508C59.0066 24.9453 57.9808 25.2439 56.9267 25.3281C55.8725 25.4124 54.8123 25.2806 53.8108 24.9408C52.8094 24.601 51.8879 24.0603 51.1027 23.3519C50.9827 23.2519 51.1027 24.3519 50.8627 24.6619C50.5727 25.2219 47.2027 25.1819 46.8627 24.6619C46.7292 24.4029 46.667 24.1129 46.6827 23.8219C46.6827 16.4819 46.6827 8.92193 46.6827 1.58193C46.6827 0.691928 47.0727 0.331928 47.9327 0.351928C48.7927 0.371928 49.3827 0.411928 50.1227 0.351928C51.1227 0.351928 51.3927 0.771928 51.3927 1.66193C51.4127 3.81193 51.4527 9.06193 51.4727 9.14193ZM55.5727 11.7919C53.1827 11.7919 51.3527 13.5619 51.2927 16.3219C51.2487 16.9082 51.3257 17.4972 51.5188 18.0525C51.7119 18.6078 52.0172 19.1174 52.4155 19.5498C52.8138 19.9822 53.2968 20.3281 53.8344 20.566C54.372 20.804 54.9527 20.9289 55.5406 20.933C56.1285 20.9371 56.711 20.8204 57.2518 20.59C57.7927 20.3596 58.2805 20.0205 58.6848 19.5937C59.0892 19.167 59.4015 18.6617 59.6024 18.1092C59.8033 17.5566 59.8885 16.9687 59.8527 16.3819C59.8985 15.7937 59.8215 15.2024 59.6267 14.6454C59.4319 14.0885 59.1236 13.5781 58.7212 13.1466C58.3188 12.7151 57.8312 12.3718 57.2892 12.1386C56.7472 11.9054 56.1627 11.7874 55.5727 11.7919Z" fill="#FE012F"/>
<path d="M90.9627 23.5019C90.9627 25.9719 90.9627 28.2419 90.9627 30.5019C90.9627 32.1719 90.9627 32.1719 89.2327 32.1719C88.6327 32.1719 88.0327 32.1719 87.4427 32.1719C86.6627 32.1719 86.4427 31.8119 86.4427 31.0919V8.78193C86.4427 8.05193 86.7227 7.67193 87.5027 7.78193C87.9927 7.78193 88.8927 7.78193 89.3927 7.78193C90.7627 7.78193 90.6827 8.18193 90.6827 9.49193C95.4727 4.94193 102.543 8.36193 103.813 14.1919C104.331 16.1896 104.156 18.3039 103.317 20.1893C102.477 22.0747 101.024 23.6197 99.1927 24.5719C98.0776 25.1734 96.818 25.4553 95.5528 25.3865C94.2876 25.3177 93.0661 24.9009 92.0227 24.1819C91.6927 24.0019 91.4427 23.8019 90.9627 23.5019ZM90.8827 16.3019C90.8462 16.8914 90.9295 17.4822 91.1276 18.0386C91.3258 18.595 91.6347 19.1055 92.0356 19.5392C92.4366 19.9729 92.9213 20.3208 93.4605 20.5619C93.9997 20.803 94.5822 20.9322 95.1727 20.9419C95.7665 20.9507 96.3557 20.8354 96.9024 20.6036C97.4492 20.3718 97.9416 20.0284 98.3481 19.5955C98.7547 19.1626 99.0665 18.6497 99.2635 18.0894C99.4606 17.5292 99.5387 16.934 99.4927 16.3419C99.4927 13.7619 98.0827 11.8919 95.3727 11.7919C94.7726 11.7584 94.1721 11.8522 93.6108 12.0673C93.0495 12.2823 92.5401 12.6137 92.116 13.0397C91.6919 13.4657 91.3628 13.9766 91.1502 14.5388C90.9377 15.1011 90.8465 15.7019 90.8827 16.3019Z" fill="#FE012F"/>
<path d="M126.153 9.34193C126.373 7.73193 126.153 7.71193 127.923 7.73193C128.463 7.73193 128.923 7.73193 129.513 7.73193C130.403 7.63193 130.683 8.13193 130.683 8.90193V23.8219C130.683 24.6619 130.323 25.1219 129.413 25.0419C128.953 25.0419 128.473 25.0419 128.023 25.0419C126.433 25.0419 126.113 25.0419 126.113 23.2919C125.531 23.9371 124.822 24.4549 124.03 24.8128C123.239 25.1708 122.381 25.3611 121.513 25.3719C120.558 25.4302 119.602 25.2966 118.7 24.9788C117.799 24.661 116.97 24.1656 116.263 23.5219C115.153 22.5958 114.275 21.4243 113.696 20.1002C113.117 18.776 112.854 17.3354 112.928 15.8922C113.002 14.449 113.41 13.0426 114.121 11.7843C114.831 10.5261 115.825 9.45025 117.023 8.64193C118.251 7.77355 119.727 7.32407 121.231 7.3601C122.735 7.39612 124.187 7.91573 125.373 8.84193L126.153 9.34193ZM117.593 16.3419C117.593 19.0519 119.383 21.0619 121.833 21.0019C122.426 21.0008 123.013 20.8774 123.557 20.6393C124.101 20.4013 124.59 20.0537 124.993 19.6183C125.397 19.183 125.706 18.6691 125.902 18.1088C126.098 17.5486 126.177 16.9539 126.133 16.3619C126.16 15.773 126.068 15.1847 125.862 14.6321C125.657 14.0795 125.342 13.5739 124.937 13.1456C124.532 12.7172 124.045 12.3748 123.505 12.1388C122.964 11.9028 122.382 11.778 121.793 11.7719C121.217 11.7872 120.651 11.9173 120.127 12.1545C119.602 12.3917 119.131 12.7313 118.74 13.1533C118.348 13.5753 118.045 14.0712 117.848 14.6119C117.651 15.1526 117.565 15.7272 117.593 16.3019V16.3419Z" fill="#FE012F"/>
<path d="M44.6927 16.3019C44.7206 17.4999 44.5074 18.6912 44.0657 19.8051C43.6241 20.919 42.963 21.9327 42.1218 22.7861C41.2806 23.6394 40.2764 24.315 39.1689 24.7725C38.0615 25.2301 36.8733 25.4603 35.6751 25.4496C34.4769 25.4389 33.2931 25.1874 32.194 24.7101C31.0949 24.2327 30.103 23.5393 29.2772 22.6711C28.4514 21.8028 27.8085 20.7774 27.3869 19.6558C26.9653 18.5341 26.7734 17.3392 26.8227 16.1419C26.8544 13.7822 27.8188 11.531 29.5052 9.88018C31.1916 8.22937 33.4629 7.31322 35.8227 7.33193C36.9979 7.3251 38.1626 7.55319 39.2484 8.00281C40.3342 8.45243 41.3192 9.11451 42.1455 9.95015C42.9719 10.7858 43.6229 11.7782 44.0603 12.8689C44.4977 13.9597 44.7127 15.1269 44.6927 16.3019ZM40.0227 16.5019C40.0607 15.9244 39.9828 15.3452 39.7935 14.7982C39.6043 14.2513 39.3076 13.7477 38.9208 13.3171C38.5341 12.8866 38.0651 12.5377 37.5416 12.2911C37.018 12.0444 36.4504 11.905 35.8721 11.881C35.2939 11.857 34.7167 11.9489 34.1744 12.1513C33.6322 12.3536 33.136 12.6624 32.7149 13.0594C32.2938 13.4565 31.9563 13.9337 31.7224 14.4631C31.4885 14.9924 31.3628 15.5633 31.3527 16.1419C31.308 16.7459 31.3848 17.3527 31.5786 17.9264C31.7724 18.5002 32.0793 19.0293 32.4811 19.4824C32.8829 19.9355 33.3715 20.3034 33.918 20.5644C34.4645 20.8254 35.0578 20.9742 35.6627 21.0019C36.2457 20.9968 36.8218 20.8758 37.3576 20.6461C37.8934 20.4164 38.3782 20.0825 38.7839 19.6638C39.1896 19.2451 39.508 18.75 39.7206 18.2072C39.9333 17.6644 40.036 17.0848 40.0227 16.5019Z" fill="#FE012F"/>
<path d="M66.3527 16.2819C66.3872 13.9215 67.3579 11.6714 69.0514 10.0268C70.7449 8.38206 73.0223 7.47745 75.3827 7.51193C77.7432 7.54641 79.9932 8.51715 81.6379 10.2106C83.2826 11.9041 84.1872 14.1815 84.1527 16.5419C84.1356 17.7107 83.8885 18.8647 83.4255 19.9379C82.9625 21.0112 82.2926 21.9827 81.4541 22.7971C80.6155 23.6115 79.6248 24.2527 78.5385 24.6842C77.4522 25.1157 76.2915 25.329 75.1227 25.3119C72.7623 25.2774 70.5122 24.3067 68.8676 22.6133C67.2229 20.9198 66.3183 18.6424 66.3527 16.2819ZM79.5627 16.2819C79.5954 15.6827 79.5023 15.0833 79.2894 14.5223C79.0764 13.9612 78.7485 13.4509 78.3265 13.0242C77.9045 12.5976 77.3979 12.2639 76.8393 12.0448C76.2806 11.8257 75.6823 11.7259 75.0827 11.7519C74.4765 11.777 73.8819 11.9265 73.336 12.1913C72.7901 12.4561 72.3046 12.8305 71.9096 13.2911C71.5147 13.7517 71.2188 14.2887 71.0404 14.8686C70.862 15.4485 70.8049 16.059 70.8727 16.6619C70.9066 17.8282 71.3953 18.9351 72.2342 19.746C73.0732 20.5569 74.1959 21.0076 75.3627 21.0019C75.9506 20.9794 76.5278 20.8386 77.0601 20.5881C77.5923 20.3375 78.0687 19.9823 78.4606 19.5437C78.8526 19.105 79.1522 18.5919 79.3416 18.035C79.5309 17.478 79.6061 16.8886 79.5627 16.3019V16.2819Z" fill="#FE012F"/>
<path d="M110.813 12.8019C110.813 16.4819 110.813 20.1819 110.813 23.8619C110.813 24.7219 110.493 25.0619 109.663 25.0219C108.933 24.9819 108.202 24.9819 107.473 25.0219C106.473 25.0819 106.163 24.6219 106.163 23.7219V2.00193C106.163 0.751928 106.333 0.571928 107.573 0.551928C108.263 0.551928 108.963 0.551928 109.663 0.551928C110.513 0.551928 110.813 0.891928 110.813 1.72193C110.793 5.42193 110.813 9.12193 110.813 12.8019Z" fill="#FE012F"/>
<path d="M20.1227 12.7819V1.42193C20.1227 0.0719275 20.6627 -0.388072 22.3327 0.351928C24.2627 1.19193 24.7627 1.35193 24.7627 2.96193C24.7627 9.10193 24.7627 15.9619 24.7027 22.2719C24.7027 23.5019 24.7627 24.0419 23.2427 24.7219C22.9327 24.8619 22.3127 25.1819 21.8527 25.3519C20.9427 25.7319 20.1027 25.3519 20.1227 24.0219C20.1227 21.3619 20.1227 18.6919 20.1227 16.0219C20.1027 15.0019 20.1027 13.8819 20.1227 12.7819Z" fill="#FE012F"/>
</svg>
