<svg width="167" height="55" viewBox="0 0 167 55" fill="none" xmlns="http://www.w3.org/2000/svg">
<path d="M21.2604 29.3287C21.2604 24.9107 24.8419 21.3292 29.2598 21.3292H56.0371C57.3644 21.3292 58.0409 22.9233 57.1187 23.8779L52.9104 28.2338C49.6176 31.6421 45.0817 33.5669 40.3426 33.5669H23.3346C22.189 33.5669 21.2604 32.6383 21.2604 31.4927V29.3287Z" fill="#FCC203"/>
<path d="M36.1945 0.639275C37.34 0.639275 38.2686 1.56792 38.2686 2.71346V6.80996C38.2686 10.1607 35.5524 12.8769 32.2017 12.8769H18.3046C14.9539 12.8769 12.2377 15.5932 12.2377 18.9439V36.0559C12.2377 39.4066 14.9539 42.1229 18.3046 42.1229H56.0371C57.3644 42.1229 58.0408 43.717 57.1186 44.6715L52.9104 49.0274C49.6176 52.4358 45.0817 54.3606 40.3425 54.3606H17.475C7.8238 54.3606 0 46.5367 0 36.8856V18.1143C0 8.46309 7.82381 0.639275 17.475 0.639275H36.1945Z" fill="#045071"/>
<path d="M54.7584 10.5953C54.7584 13.9747 52.0189 16.7142 48.6395 16.7142C45.2602 16.7142 42.5207 13.9747 42.5207 10.5953C42.5207 7.216 45.2602 4.47651 48.6395 4.47651C52.0189 4.47651 54.7584 7.216 54.7584 10.5953Z" fill="#FCC203"/>
<path d="M86.8959 28.1987C86.8959 28.8909 86.7742 29.6407 86.5306 30.4483C86.2871 31.2431 85.8897 31.9865 85.3385 32.6787C84.8001 33.3581 84.0887 33.9286 83.2042 34.39C82.3325 34.8515 81.2686 35.0822 80.0124 35.0822H70.9945V31.8682C70.9945 31.0203 71.6818 30.3329 72.5298 30.3329H80.0124C80.6917 30.3329 81.2173 30.1279 81.589 29.7177C81.9608 29.2946 82.1467 28.7755 82.1467 28.1602C82.1467 27.5065 81.9351 26.9937 81.5121 26.622C81.1019 26.2502 80.602 26.0644 80.0124 26.0644H70.9945C70.3151 26.0644 69.7895 26.2759 69.4178 26.6989C69.0461 27.1091 68.8602 27.6218 68.8602 28.2371V35.2168C68.8602 35.8834 69.0653 36.4026 69.4755 36.7743C69.8985 37.146 70.4176 37.3319 71.0329 37.3319H78.4771C79.325 37.3319 80.0124 38.0193 80.0124 38.8672V42.1004H70.9945C70.3023 42.1004 69.5524 41.9786 68.7448 41.7351C67.9501 41.4915 67.2066 41.1006 66.5144 40.5622C65.835 40.011 65.2646 39.2995 64.8031 38.4279C64.3416 37.5434 64.1109 36.4731 64.1109 35.2168V28.1987C64.1109 27.5065 64.2327 26.763 64.4762 25.9682C64.7198 25.1606 65.1107 24.4172 65.6491 23.7378C66.2003 23.0456 66.9118 22.4687 67.7834 22.0073C68.6679 21.5458 69.7383 21.3151 70.9945 21.3151H80.0124C80.7046 21.3151 81.448 21.4368 82.2428 21.6804C83.0504 21.924 83.7938 22.3213 84.4732 22.8725C85.1654 23.4109 85.7423 24.1223 86.2037 25.0068C86.6652 25.8785 86.8959 26.9424 86.8959 28.1987Z" fill="#045071"/>
<path d="M99.3941 42.1004H97.1636C96.4458 42.1004 95.6767 41.9786 94.8563 41.7351C94.0487 41.4915 93.2924 41.0942 92.5874 40.543C91.8824 39.9789 91.2991 39.2547 90.8377 38.3702C90.3762 37.4729 90.1455 36.3769 90.1455 35.0822V12.5279H93.6094C94.4573 12.5279 95.1447 13.2153 95.1447 14.0632V35.0822C95.1447 35.6975 95.337 36.191 95.7215 36.5628C96.1061 36.9217 96.5868 37.1012 97.1636 37.1012H97.8588C98.7067 37.1012 99.3941 37.7885 99.3941 38.6364V42.1004Z" fill="#045071"/>
<path d="M107.681 40.5651C107.681 41.413 106.994 42.1004 106.146 42.1004H102.682V22.8503C102.682 22.0024 103.369 21.3151 104.217 21.3151H107.681V40.5651Z" fill="#045071"/>
<path d="M129.487 40.5651C129.487 41.413 128.8 42.1004 127.952 42.1004H124.488V28.314C124.488 27.6603 124.308 27.0448 123.962 26.7116C123.616 26.3655 123.116 26.0532 122.436 26.0532H115.931V40.5651C115.931 41.413 115.244 42.1004 114.396 42.1004H110.932V23.7955C110.932 23.4494 110.996 23.1289 111.124 22.8341C111.253 22.5264 111.432 22.2636 111.663 22.0457C111.894 21.815 112.163 21.6355 112.47 21.5074C112.778 21.3792 113.105 21.3151 113.451 21.3151H122.469C123.161 21.3151 126.968 21.3151 126.968 21.3151H133.736C134.211 21.3151 134.711 21.3728 135.236 21.4881C135.762 21.5907 136.281 21.7573 136.794 21.988C137.319 22.2188 137.819 22.52 138.293 22.8918C138.768 23.2507 139.184 23.6929 139.543 24.2185C139.902 24.7312 140.191 25.3273 140.408 26.0067C140.626 26.6861 140.735 27.4552 140.735 28.314V40.5651C140.735 41.413 140.048 42.1004 139.2 42.1004H135.736V28.314C135.736 27.6603 135.569 27.1668 135.236 26.8335C134.916 26.4874 134.416 26.0532 133.736 26.0532H129.199C129.366 26.6685 129.487 27.5962 129.487 28.314V40.5651Z" fill="#045071"/>
<path d="M167 39.5816C167 39.9405 166.936 40.2738 166.808 40.5814C166.68 40.8891 166.5 41.1582 166.269 41.389C166.051 41.6069 165.789 41.7799 165.481 41.9081C165.186 42.0363 164.866 42.1004 164.52 42.1004H153.214C152.598 42.1004 151.938 42.0299 151.233 41.8889C150.541 41.7479 149.855 41.5236 149.176 41.2159C148.496 40.8955 147.836 40.4981 147.195 40.0238C146.567 39.5367 146.016 38.9534 145.542 38.2741C145.067 37.5819 144.683 36.7871 144.388 35.8898C144.106 34.9925 143.965 33.9798 143.965 32.8518V22.8503C143.965 22.0024 144.652 21.3151 145.5 21.3151H148.964V32.8518C148.964 33.5056 149.073 34.0952 149.291 34.6208C149.522 35.1335 149.733 35.6766 150.117 36.0484C150.502 36.4201 150.862 36.771 151.374 36.9761C151.887 37.1812 152.657 37.3651 153.26 37.3651H162.001V22.8503C162.001 22.0024 162.688 21.3151 163.536 21.3151H167V39.5816Z" fill="#045071"/>
<path d="M107.686 15.0235C107.686 16.4025 106.568 17.5204 105.189 17.5204C103.81 17.5204 102.692 16.4025 102.692 15.0235C102.692 13.6446 103.81 12.5267 105.189 12.5267C106.568 12.5267 107.686 13.6446 107.686 15.0235Z" fill="#045071"/>
</svg>
