<svg width="167" height="54" viewBox="0 0 167 54" fill="none" xmlns="http://www.w3.org/2000/svg">
<path d="M21.2604 28.9682C21.2604 24.5503 24.8419 20.9688 29.2598 20.9688H56.0371C57.3644 20.9688 58.0409 22.5629 57.1187 23.5174L52.9104 27.8733C49.6176 31.2816 45.0817 33.2064 40.3426 33.2064H23.3346C22.189 33.2064 21.2604 32.2778 21.2604 31.1323V28.9682Z" fill="#FCC203"/>
<path d="M36.1945 0.278809C37.34 0.278809 38.2686 1.20745 38.2686 2.35299V6.4495C38.2686 9.8002 35.5524 12.5165 32.2017 12.5165H18.3046C14.9539 12.5165 12.2377 15.2328 12.2377 18.5835V35.6954C12.2377 39.0461 14.9539 41.7624 18.3046 41.7624H56.0371C57.3644 41.7624 58.0408 43.3565 57.1186 44.3111L52.9104 48.6669C49.6176 52.0753 45.0817 54.0001 40.3425 54.0001H17.475C7.8238 54.0001 0 46.1763 0 36.5251V17.7538C0 8.10262 7.82381 0.278809 17.475 0.278809H36.1945Z" fill="white"/>
<path d="M54.7584 10.2349C54.7584 13.6142 52.0189 16.3537 48.6395 16.3537C45.2602 16.3537 42.5207 13.6142 42.5207 10.2349C42.5207 6.85554 45.2602 4.11604 48.6395 4.11604C52.0189 4.11604 54.7584 6.85554 54.7584 10.2349Z" fill="#FCC203"/>
<path d="M86.8959 27.8382C86.8959 28.5304 86.7742 29.2803 86.5306 30.0879C86.2871 30.8826 85.8897 31.6261 85.3385 32.3183C84.8001 32.9977 84.0887 33.5681 83.2042 34.0296C82.3325 34.491 81.2686 34.7218 80.0124 34.7218H70.9945V31.5078C70.9945 30.6598 71.6818 29.9725 72.5298 29.9725H80.0124C80.6917 29.9725 81.2173 29.7674 81.589 29.3572C81.9608 28.9342 82.1467 28.415 82.1467 27.7997C82.1467 27.146 81.9351 26.6332 81.5121 26.2615C81.1019 25.8898 80.602 25.7039 80.0124 25.7039H70.9945C70.3151 25.7039 69.7895 25.9154 69.4178 26.3384C69.0461 26.7486 68.8602 27.2614 68.8602 27.8766V34.8564C68.8602 35.5229 69.0653 36.0421 69.4755 36.4138C69.8985 36.7856 70.4176 36.9714 71.0329 36.9714H78.4771C79.325 36.9714 80.0124 37.6588 80.0124 38.5067V41.7399H70.9945C70.3023 41.7399 69.5524 41.6182 68.7448 41.3746C67.9501 41.1311 67.2066 40.7401 66.5144 40.2017C65.835 39.6505 65.2646 38.9391 64.8031 38.0674C64.3416 37.1829 64.1109 36.1126 64.1109 34.8564V27.8382C64.1109 27.146 64.2327 26.4025 64.4762 25.6078C64.7198 24.8002 65.1107 24.0567 65.6491 23.3773C66.2003 22.6851 66.9118 22.1083 67.7834 21.6468C68.6679 21.1853 69.7383 20.9546 70.9945 20.9546H80.0124C80.7046 20.9546 81.448 21.0764 82.2428 21.3199C83.0504 21.5635 83.7938 21.9609 84.4732 22.5121C85.1654 23.0504 85.7423 23.7619 86.2037 24.6464C86.6652 25.518 86.8959 26.582 86.8959 27.8382Z" fill="white"/>
<path d="M99.3941 41.7399H97.1636C96.4458 41.7399 95.6767 41.6182 94.8563 41.3746C94.0487 41.1311 93.2924 40.7337 92.5874 40.1825C91.8824 39.6185 91.2991 38.8942 90.8377 38.0097C90.3762 37.1124 90.1455 36.0164 90.1455 34.7218V12.1675H93.6094C94.4573 12.1675 95.1447 12.8548 95.1447 13.7027V34.7218C95.1447 35.3371 95.337 35.8306 95.7215 36.2023C96.1061 36.5612 96.5868 36.7407 97.1636 36.7407H97.8588C98.7067 36.7407 99.3941 37.4281 99.3941 38.276V41.7399Z" fill="white"/>
<path d="M107.681 40.2047C107.681 41.0526 106.994 41.7399 106.146 41.7399H102.682V22.4899C102.682 21.642 103.369 20.9546 104.217 20.9546H107.681V40.2047Z" fill="white"/>
<path d="M129.487 40.2047C129.487 41.0526 128.8 41.7399 127.952 41.7399H124.488V27.9536C124.488 27.2998 124.308 26.6844 123.962 26.3511C123.616 26.005 123.116 25.6927 122.436 25.6927H115.931V40.2047C115.931 41.0526 115.244 41.7399 114.396 41.7399H110.932V23.435C110.932 23.0889 110.996 22.7684 111.124 22.4736C111.253 22.166 111.432 21.9032 111.663 21.6853C111.894 21.4545 112.163 21.2751 112.47 21.1469C112.778 21.0187 113.105 20.9546 113.451 20.9546H122.469C123.161 20.9546 126.968 20.9546 126.968 20.9546H133.736C134.211 20.9546 134.711 21.0123 135.236 21.1277C135.762 21.2302 136.281 21.3968 136.794 21.6276C137.319 21.8583 137.819 22.1596 138.293 22.5313C138.768 22.8902 139.184 23.3325 139.543 23.858C139.902 24.3708 140.191 24.9668 140.408 25.6462C140.626 26.3256 140.735 27.0947 140.735 27.9536V40.2047C140.735 41.0526 140.048 41.7399 139.2 41.7399H135.736V27.9536C135.736 27.2998 135.569 26.8063 135.236 26.473C134.916 26.1269 134.416 25.6927 133.736 25.6927H129.199C129.366 26.308 129.487 27.2357 129.487 27.9536V40.2047Z" fill="white"/>
<path d="M167 39.2211C167 39.58 166.936 39.9133 166.808 40.2209C166.68 40.5286 166.5 40.7978 166.269 41.0285C166.051 41.2464 165.789 41.4195 165.481 41.5477C165.186 41.6758 164.866 41.7399 164.52 41.7399H153.214C152.598 41.7399 151.938 41.6694 151.233 41.5284C150.541 41.3874 149.855 41.1631 149.176 40.8555C148.496 40.535 147.836 40.1376 147.195 39.6633C146.567 39.1762 146.016 38.593 145.542 37.9136C145.067 37.2214 144.683 36.4266 144.388 35.5293C144.106 34.632 143.965 33.6194 143.965 32.4913V22.4899C143.965 21.642 144.652 20.9546 145.5 20.9546H148.964V32.4913C148.964 33.1451 149.073 33.7347 149.291 34.2603C149.522 34.773 149.733 35.3162 150.117 35.6879C150.502 36.0597 150.862 36.4105 151.374 36.6156C151.887 36.8207 152.657 37.0046 153.26 37.0046H162.001V22.4899C162.001 21.642 162.688 20.9546 163.536 20.9546H167V39.2211Z" fill="white"/>
<path d="M107.686 14.6631C107.686 16.042 106.568 17.1599 105.189 17.1599C103.81 17.1599 102.692 16.042 102.692 14.6631C102.692 13.2841 103.81 12.1662 105.189 12.1662C106.568 12.1662 107.686 13.2841 107.686 14.6631Z" fill="white"/>
</svg>
