<svg width="41" height="41" viewBox="0 0 41 41" fill="none" xmlns="http://www.w3.org/2000/svg">
<path d="M19.8438 1L16.4438 1.96667L22.9439 3.44448L16.4438 4.88895L22.9439 6.38897L16.4438 8.16678L22.9439 9.61125L16.4438 11.1113L22.9439 12.6113L16.4438 14.3335L23.2217 15.8891" stroke="#FCC203" stroke-width="1.53334" stroke-linecap="square"/>
<path d="M13.7227 24.3335C16.4534 24.3335 18.6669 26.5471 18.667 29.2778C18.667 29.2964 18.6652 29.315 18.665 29.3335H15.7754C15.7759 29.315 15.7783 29.2965 15.7783 29.2778C15.7782 28.1426 14.8579 27.2222 13.7227 27.2222C12.5875 27.2223 11.6671 28.1427 11.667 29.2778C11.667 29.2965 11.6694 29.315 11.6699 29.3335H8.78027C8.78007 29.315 8.77832 29.2964 8.77832 29.2778C8.77842 26.5472 10.992 24.3336 13.7227 24.3335Z" fill="#FCC203"/>
<path d="M26.6113 24.3335C29.3421 24.3335 31.5556 26.5471 31.5557 29.2778C31.5557 29.2964 31.5549 29.315 31.5547 29.3335H28.6641C28.6646 29.315 28.667 29.2965 28.667 29.2778C28.6669 28.1426 27.7466 27.2222 26.6113 27.2222C25.4763 27.2224 24.5558 28.1427 24.5557 29.2778C24.5557 29.2965 24.5581 29.315 24.5586 29.3335H21.6689C21.6687 29.315 21.667 29.2964 21.667 29.2778C21.6671 26.5473 23.8808 24.3337 26.6113 24.3335Z" fill="#FCC203"/>
<path d="M40.334 18.0972V38.0796L37.4131 41.0005H2.98535L0 38.0151V18.1616L3.05078 15.1108H37.3477L40.334 18.0972ZM3.88867 37.1108H36.4453V18.9995H3.88867V37.1108Z" fill="white"/>
</svg>
