<svg width="333" height="71" viewBox="0 0 333 71" fill="none" xmlns="http://www.w3.org/2000/svg">
<path d="M80.4536 2L74.6729 3.64354L85.7244 6.15613L74.6729 8.61203L85.7244 11.1624L74.6729 14.185L85.7244 16.6409L74.6729 19.1913L85.7244 21.7416L74.6729 24.6698L86.1967 27.3146" stroke="#FCC203" stroke-width="2.60699" stroke-linecap="square"/>
<path d="M70.2617 41.6774C74.8042 41.7926 78.4512 45.5114 78.4512 50.0817L78.4502 50.1735H73.5371C73.5379 50.143 73.5391 50.1124 73.5391 50.0817C73.5391 48.1516 71.9749 46.5868 70.0449 46.5865C68.1147 46.5865 66.5498 48.1514 66.5498 50.0817C66.5498 50.1124 66.551 50.1429 66.5518 50.1735H61.6387L61.6377 50.0817C61.6377 45.4388 65.402 41.6744 70.0449 41.6744L70.2617 41.6774ZM92.1758 41.6774C96.7182 41.7926 100.365 45.5114 100.365 50.0817L100.364 50.1735H95.4512C95.452 50.143 95.4531 50.1124 95.4531 50.0817C95.4531 48.1516 93.889 46.5868 91.959 46.5865C90.0288 46.5865 88.4639 48.1514 88.4639 50.0817C88.4639 50.1124 88.465 50.1429 88.4658 50.1735H83.5527L83.5518 50.0817C83.5518 45.4388 87.3161 41.6744 91.959 41.6744L92.1758 41.6774Z" fill="#FCC203"/>
<path d="M70.2617 41.6774C74.8042 41.7926 78.4512 45.5114 78.4512 50.0817L78.4502 50.1735H73.5371C73.5379 50.143 73.5391 50.1124 73.5391 50.0817C73.5391 48.1516 71.9749 46.5868 70.0449 46.5865C68.1147 46.5865 66.5498 48.1514 66.5498 50.0817C66.5498 50.1124 66.551 50.1429 66.5518 50.1735H61.6387L61.6377 50.0817C61.6377 45.4388 65.402 41.6744 70.0449 41.6744L70.2617 41.6774ZM92.1758 41.6774C96.7182 41.7926 100.365 45.5114 100.365 50.0817L100.364 50.1735H95.4512C95.452 50.143 95.4531 50.1124 95.4531 50.0817C95.4531 48.1516 93.889 46.5868 91.959 46.5865C90.0288 46.5865 88.4639 48.1514 88.4639 50.0817C88.4639 50.1124 88.465 50.1429 88.4658 50.1735H83.5527L83.5518 50.0817C83.5518 45.4388 87.3161 41.6744 91.959 41.6744L92.1758 41.6774Z" stroke="#045071"/>
<path d="M115.29 31.0641V65.0397L110.322 70.0075H51.79L46.7139 64.9303V31.1784L51.9023 25.9899H110.216L115.29 31.0641ZM53.3262 63.3952H108.678V32.6012H53.3262V63.3952Z" fill="#045071"/>
<path d="M115.29 31.0641V65.0397L110.322 70.0075H51.79L46.7139 64.9303V31.1784L51.9023 25.9899H110.216L115.29 31.0641ZM53.3262 63.3952H108.678V32.6012H53.3262V63.3952Z" stroke="#045071"/>
<path d="M40.4267 70.2436H30.2509L22.4532 55.0905H8.90384V70.1883H0V26.0009H31.4676L38.0487 31.8077V45.0806L31.4123 52.6018L40.4267 70.2436ZM8.90384 34.96V46.1866H25.4395L29.1449 41.9283V36.0108L27.8176 34.96H8.90384Z" fill="#045071"/>
<path d="M161.918 31.7524V45.3018L158.324 48.2881L161.918 51.4404V64.492L155.393 70.2436H123.317V26.0009H155.393L161.918 31.7524ZM153.07 42.5366V35.9555L151.743 34.9047H132.22V44.3616H150.526L153.07 42.5366ZM153.07 60.289V53.9844L150.471 52.0488H132.22V61.3397H151.743L153.07 60.289Z" fill="#045071"/>
<path d="M175.94 70.2436L169.414 64.492V31.7524L175.94 26.0009H200.993L207.574 31.7524V64.492L200.993 70.2436H175.94ZM179.59 61.3397H197.287L198.67 60.2337V35.9555L197.287 34.9047H179.59L178.263 35.9555V60.2337L179.59 61.3397Z" fill="#045071"/>
<path d="M213.546 25.2589H243.743L249.804 30.5419V49.1715L243.743 54.1208H222.5V69.7474H213.546V25.2589ZM222.5 45.2231H239.572L240.907 44.1665V35.2688L239.572 34.2122H222.5V45.2231Z" fill="#045071"/>
<path d="M255.893 69.7474V25.2589H292.095V34.2122H264.846V43.0543H290.427V51.952H264.846V60.7941H292.095V69.7474H255.893Z" fill="#045071"/>
<path d="M308.086 61.1277H333V69.7474H299.189V25.2589H308.086V61.1277Z" fill="#045071"/>
</svg>
